<svg xmlns="http://www.w3.org/2000/svg" width="14" height="10.5" viewBox="0 0 14 10.5">
  <path id="Trazado_6643" data-name="Trazado 6643" d="M12.688,64H1.313A1.312,1.312,0,0,0,0,65.313v7.875A1.312,1.312,0,0,0,1.313,74.5H12.688A1.312,1.312,0,0,0,14,73.188V65.313A1.312,1.312,0,0,0,12.688,64Zm0,1.313v1.116c-.613.5-1.591,1.276-3.68,2.912C8.547,69.7,7.635,70.573,7,70.562c-.635.01-1.547-.86-2.007-1.222C2.9,67.7,1.926,66.928,1.313,66.428V65.313ZM1.313,73.188V68.112c.627.5,1.515,1.2,2.869,2.26.6.47,1.644,1.509,2.818,1.5s2.2-1.017,2.818-1.5c1.354-1.06,2.243-1.761,2.87-2.26v5.075Z" transform="translate(0 -64)" fill="#fff"/>
</svg>
